<svg width="1600" height="980" viewBox="0 0 1600 980" fill="none" xmlns="http://www.w3.org/2000/svg">
  <rect width="1600" height="980" fill="#F3F1EB"/>
  <rect x="70" y="56" width="1460" height="868" rx="10" fill="#F7F5EF" stroke="#161616" stroke-width="4"/>
  <rect x="108" y="92" width="92" height="40" fill="#F7F5EF" stroke="#161616" stroke-width="2"/>
  <rect x="200" y="92" width="84" height="40" fill="#F7F5EF" stroke="#161616" stroke-width="2"/>
  <text x="130" y="118" fill="#161616" font-family="Courier New, monospace" font-size="16">DASHBOARD</text>
  <text x="220" y="118" fill="#161616" font-family="Courier New, monospace" font-size="16">PERSONAL</text>
  <text x="110" y="246" fill="#0F0F0F" font-family="Arial, Helvetica, sans-serif" font-size="92" font-weight="700">Ledger overview</text>
  <text x="110" y="316" fill="#66635E" font-family="Arial, Helvetica, sans-serif" font-size="32">Posting-derived balances, account ownership, idempotent writes, and</text>
  <text x="110" y="356" fill="#66635E" font-family="Arial, Helvetica, sans-serif" font-size="32">monthly statement exports from the same canonical ledger surface.</text>

  <rect x="1148" y="100" width="170" height="54" fill="#C8F000" stroke="#161616" stroke-width="2"/>
  <text x="1184" y="134" fill="#161616" font-family="Courier New, monospace" font-size="20">OPEN ACTIONS</text>
  <rect x="1336" y="100" width="182" height="54" fill="#F7F5EF" stroke="#161616" stroke-width="2"/>
  <text x="1366" y="134" fill="#161616" font-family="Courier New, monospace" font-size="18">TRANSACTION DETAIL</text>

  <rect x="110" y="404" width="828" height="508" fill="#F7F5EF" stroke="#161616" stroke-width="3"/>
  <rect x="110" y="404" width="828" height="62" fill="#F7F5EF" stroke="#161616" stroke-width="2"/>
  <text x="138" y="442" fill="#5F5D59" font-family="Courier New, monospace" font-size="18">TOTAL BALANCE   GBP</text>
  <rect x="802" y="424" width="108" height="38" fill="#F7F5EF" stroke="#161616" stroke-width="2"/>
  <text x="834" y="448" fill="#161616" font-family="Courier New, monospace" font-size="16">AUDITED</text>

  <rect x="138" y="498" width="446" height="312" fill="#EFECE5" stroke="#161616" stroke-width="2"/>
  <text x="164" y="540" fill="#7A7771" font-family="Courier New, monospace" font-size="16">CURRENT</text>
  <text x="164" y="660" fill="#111111" font-family="Arial, Helvetica, sans-serif" font-size="86" font-weight="700">10,002.34</text>
  <rect x="164" y="708" width="190" height="84" fill="#F7F5EF" stroke="#161616" stroke-width="2"/>
  <rect x="372" y="708" width="186" height="84" fill="#F7F5EF" stroke="#161616" stroke-width="2"/>
  <text x="184" y="744" fill="#7A7771" font-family="Courier New, monospace" font-size="16">RECENT FLOW</text>
  <text x="184" y="784" fill="#161616" font-family="Courier New, monospace" font-size="24">+ 5,000.00</text>
  <text x="396" y="744" fill="#7A7771" font-family="Courier New, monospace" font-size="16">LAST SETTLED</text>
  <text x="396" y="784" fill="#161616" font-family="Courier New, monospace" font-size="24">2026-03-12</text>

  <rect x="606" y="498" width="304" height="312" fill="#EFECE5" stroke="#161616" stroke-width="2"/>
  <text x="634" y="540" fill="#7A7771" font-family="Courier New, monospace" font-size="16">QUICK ACTIONS</text>
  <rect x="634" y="560" width="114" height="46" fill="#F7F5EF" stroke="#161616" stroke-width="2"/>
  <rect x="762" y="560" width="114" height="46" fill="#F7F5EF" stroke="#161616" stroke-width="2"/>
  <text x="660" y="590" fill="#161616" font-family="Courier New, monospace" font-size="18">DEPOSIT</text>
  <text x="784" y="590" fill="#161616" font-family="Courier New, monospace" font-size="18">WITHDRAW</text>
  <rect x="634" y="622" width="242" height="52" fill="#C8F000" stroke="#161616" stroke-width="2"/>
  <text x="722" y="654" fill="#161616" font-family="Courier New, monospace" font-size="20">TRANSFER</text>
  <text x="634" y="722" fill="#7A7771" font-family="Courier New, monospace" font-size="16">RULE</text>
  <text x="634" y="754" fill="#161616" font-family="Arial, Helvetica, sans-serif" font-size="24">Balances are derived from append-only postings.</text>

  <rect x="974" y="404" width="556" height="508" fill="#F7F5EF" stroke="#161616" stroke-width="3"/>
  <rect x="974" y="404" width="556" height="62" fill="#F7F5EF" stroke="#161616" stroke-width="2"/>
  <text x="1002" y="442" fill="#5F5D59" font-family="Courier New, monospace" font-size="18">THE RECEIPT ROLL</text>
  <text x="1384" y="442" fill="#5F5D59" font-family="Courier New, monospace" font-size="18">ENTRIES / SURFACE: 6</text>
  <rect x="1002" y="496" width="500" height="72" fill="#E2EBC0" stroke="#161616" stroke-width="2"/>
  <rect x="1002" y="584" width="500" height="72" fill="#F7F5EF" stroke="#161616" stroke-width="2"/>
  <rect x="1002" y="672" width="500" height="72" fill="#F7F5EF" stroke="#161616" stroke-width="2"/>
  <rect x="1002" y="760" width="500" height="72" fill="#F7F5EF" stroke="#161616" stroke-width="2"/>
  <text x="1032" y="538" fill="#3F8F7B" font-family="Courier New, monospace" font-size="20">+ 5,000.00</text>
  <text x="1318" y="538" fill="#5F5D59" font-family="Courier New, monospace" font-size="18">OPENING_DEPOSIT</text>
  <text x="1032" y="626" fill="#161616" font-family="Courier New, monospace" font-size="20">- 200.00</text>
  <text x="1366" y="626" fill="#5F5D59" font-family="Courier New, monospace" font-size="18">CASH_OUT</text>
  <text x="1032" y="714" fill="#3F8F7B" font-family="Courier New, monospace" font-size="20">+ 1,000.00</text>
  <text x="1366" y="714" fill="#5F5D59" font-family="Courier New, monospace" font-size="18">PAYROLL</text>
  <text x="1032" y="802" fill="#161616" font-family="Courier New, monospace" font-size="20">- 12.99</text>
  <text x="1388" y="802" fill="#5F5D59" font-family="Courier New, monospace" font-size="18">COFFEE</text>

  <rect x="138" y="840" width="772" height="52" fill="#F7F5EF" stroke="#161616" stroke-width="2"/>
  <text x="164" y="872" fill="#7A7771" font-family="Courier New, monospace" font-size="16">ACCOUNT PARTITION</text>
  <text x="774" y="872" fill="#7A7771" font-family="Courier New, monospace" font-size="16">PRIMARY PERSONAL</text>
</svg>
